<svg xmlns="http://www.w3.org/2000/svg" width="1037.812" height="870.496" viewBox="0 0 1037.812 870.496">
  <g id="Groupe_1" data-name="Groupe 1" transform="translate(-392 -80.694)">
    <g id="logopoubellecolleserre-removebg-preview_photos_v2_x2_1_" data-name="logopoubellecolleserre-removebg-preview_photos_v2_x2 (1)" transform="translate(362 -116.306)">
      <g id="layer101" transform="translate(678.038 678.138)">
        <path id="Tracé_1" data-name="Tracé 1" d="M6748.153,6568.7c4.739-4.739,8.9-8.7,9.188-8.7a117.655,117.655,0,0,1-8.222,8.7c-4.739,4.836-8.9,8.705-9.188,8.705C6739.738,6577.41,6743.414,6573.541,6748.153,6568.7Z" transform="translate(-6738.979 -6425.711)" fill="#1d251e"/>
        <path id="Tracé_2" data-name="Tracé 2" d="M7351.923,6353.236c-1.354-1.45-1.451-5.706-.193-8.608.484-1.063.87-1.451.87-.773a10.748,10.748,0,0,0,2.708,3.869c1.354,1.547,2.322,2.031,1.935,1.064-.483-1.451.871-1.548,15.088-1.451,13.928,0,14.6.1,6.48.677l-9.188.58,9.479.194c5.8.1,9.381.58,9.381,1.257,0,.484-.386.677-.967.387-.484-.29-.968.29-.968,1.354,0,2.225.193,2.225-6,2.417-3.869.193-4.642-.1-4.642-1.547s.677-1.645,4.353-1.354c2.417.193,4.352-.1,4.352-.483,0-.484-5.223-.871-11.606-.871-11.025,0-11.606.1-11.606,1.934,0,1.645-.291,1.837-1.741,1.064-1.257-.677-2.515-.58-4.159.29C7353.566,6354.2,7352.89,6354.2,7351.923,6353.236Z" transform="translate(-7290.812 -6230.167)" fill="#1d251e"/>
        <path id="Tracé_3" data-name="Tracé 3" d="M7471.886,6429.871a1.343,1.343,0,0,1,2.515,0c.1.483-.387.87-1.257.87S7471.79,6430.354,7471.886,6429.871Z" transform="translate(-7400.135 -6307.381)" fill="#1d251e"/>
        <path id="Tracé_4" data-name="Tracé 4" d="M7510,6422.765c0-.871.484-1.354,1.161-1.161,1.741.58,2.031,2.708.387,2.708A1.528,1.528,0,0,1,7510,6422.765Z" transform="translate(-7434.574 -6300.662)" fill="#1d251e"/>
        <path id="Tracé_5" data-name="Tracé 5" d="M7550,6424.257c0-.774.967-1.258,2.418-1.258s2.418.484,2.418,1.258-.967,1.354-2.418,1.354S7550,6425.031,7550,6424.257Z" transform="translate(-7470.706 -6301.961)" fill="#1d251e"/>
        <path id="Tracé_6" data-name="Tracé 6" d="M7401.484,5868.745c.1-1.547.581-2.515,1.064-2.225.387.291.581.774.291,1.064s-.1,1.064.387,1.645c.774.87.58,1.354-.483,1.837C7401.581,5871.453,7401.291,5870.97,7401.484,5868.745Z" transform="translate(-7336.503 -5799.258)" fill="#1d251e"/>
        <path id="Tracé_7" data-name="Tracé 7" d="M7461.364,5822.761a1.14,1.14,0,0,1,.1-1.354c.29-.386.58-.1.58.677,0,.871.29.967,1.258.1,1.257-1.063,2.611-.58,2.611.967C7465.91,5824.115,7462.041,5823.825,7461.364,5822.761Z" transform="translate(-7390.483 -5758.399)" fill="#1d251e"/>
        <path id="Tracé_8" data-name="Tracé 8" d="M6893.926,5591.451a7.23,7.23,0,0,1,2.9-1.451c.483,0,.1.677-.968,1.451a6.05,6.05,0,0,1-2.8,1.354C6892.572,5592.8,6892.959,5592.225,6893.926,5591.451Z" transform="translate(-6877.112 -5549.529)" fill="#1d251e"/>
        <path id="Tracé_9" data-name="Tracé 9" d="M6735.921,5395.95c1.645-3.192,3-4.933,3-3.869,0,.58-.967,2.031-2.031,3.385C6735.631,5397.11,6735.245,5397.207,6735.921,5395.95Z" transform="translate(-6735.066 -5370.47)" fill="#1d251e"/>
        <path id="Tracé_10" data-name="Tracé 10" d="M6731.208,5335.6c-1.645-3-1.257-3.869.483-1.354.87,1.257,1.354,2.515,1.063,2.805C6732.466,5337.24,6731.788,5336.66,6731.208,5335.6Z" transform="translate(-6730.16 -5317.177)" fill="#1d251e"/>
        <path id="Tracé_11" data-name="Tracé 11" d="M6751.421,5300.224c-1.354-2.225-1.547-5.417-.29-6.287a1.34,1.34,0,0,1,1.644.581,1.444,1.444,0,0,1-.581,1.837c-.773.483-.483.87.968,1.257,1.354.387,2.031,1.161,1.741,2.225C6754.419,5302.255,6752.872,5302.448,6751.421,5300.224Z" transform="translate(-6748.342 -5281.998)" fill="#1d251e"/>
        <path id="Tracé_12" data-name="Tracé 12" d="M7523.405,5185.5c-.677-1.064-1.063-2.225-.87-2.417.677-.677,2.806,2.321,2.418,3.481C7524.76,5187.143,7524.083,5186.66,7523.405,5185.5Z" transform="translate(-7445.852 -5181.878)" fill="#1d251e"/>
        <path id="Tracé_13" data-name="Tracé 13" d="M7622.849,5172.765a4.3,4.3,0,0,1,3.385-1.161c1.354.29.967.677-1.548,1.547C7621.592,5174.313,7621.4,5174.216,7622.849,5172.765Z" transform="translate(-7535.72 -5171.562)" fill="#1d251e"/>
      </g>
      <g id="layer102" transform="translate(473.653 598.677)">
        <path id="Tracé_14" data-name="Tracé 14" d="M4679.771,4766.185c-.291-1.547-2.322-14.218-4.449-28.339s-4.546-29.5-5.32-34.335c-.773-4.739-3.385-21.956-5.707-38.2-5.319-35.98-7.931-53.2-14.121-93.334-2.611-17.023-7.157-47.3-10.156-67.221s-7.544-50.2-10.156-67.22c-7.543-48.94-11.413-74.958-12.187-81.438L4617,4350h21.956c16.732,0,21.955.29,22.245,1.257.194.581,1.935,15.282,3.869,32.594s5.9,51.262,8.8,75.442,7.061,59.386,9.189,78.053c2.127,18.763,4.933,42.943,6.287,53.679,2.515,20.118,3.869,30.853,7.157,58.805,1.064,8.8,3.1,25.341,4.449,36.754s3.385,28.242,4.449,37.237c1.064,9.092,2.515,21.665,3.288,28.048.774,6.48,1.451,12.864,1.451,14.315v2.611h-29.79Z" transform="translate(-4617 -4350)" fill="#2c2a2a"/>
        <path id="Tracé_15" data-name="Tracé 15" d="M5801.14,6722.427c0-1.063-.871-12.283-1.935-24.953s-3.676-44.685-5.8-70.992c-2.225-26.309-4.256-49.907-4.739-52.326-.773-4.352-.677-4.449,14.508-30.95,8.318-14.6,15.766-27.178,16.539-27.952,1.064-1.16,1.354-.58,1.838,4.353.58,6.48.387,7.061-6.867,19.344-2.418,4.256-7.254,12.574-10.64,18.378-3.385,5.9-7.156,12.283-8.414,14.313-1.645,2.611-1.935,3.772-1.064,4.063.678.29,7.835.58,15.766.678l14.509.289.58,14.024c.387,7.738,1.16,23.406,1.74,34.819s1.741,33.175,2.516,48.36,1.74,32.69,2.031,38.978l.677,11.316h-15.669C5802.2,6724.168,5801.14,6724.071,5801.14,6722.427Z" transform="translate(-5675.114 -6305.372)" fill="#2c2a2a"/>
        <path id="Tracé_16" data-name="Tracé 16" d="M6526.48,5230.431c-.29-.484-1.064-33.466-1.741-73.508-.968-60.546-.968-72.926.1-74.28,1.258-1.451,1.258-4.739.967-59.676,0-5.029-.29-6.577-1.354-6.577-1.935,0-2.515-8.511-2.8-45.168-.193-28.822-.1-30.951,1.45-30.177a6.866,6.866,0,0,0,2.612.871c.483,0,3.191-4.062,6-8.9a157.285,157.285,0,0,1,9-14.219c2.418-3.288,3.481-5.416,2.8-5.609a1.207,1.207,0,0,1-.677-1.644c.29-.677-.581-2.225-1.838-3.579-1.258-1.258-6.577-9.575-11.7-18.474-8.317-14.508-9.285-16.636-9.285-20.988,0-7.834.773-8.511,3.966-3.481a40.772,40.772,0,0,1,2.8,4.836c0,.193,2.321,4.255,5.126,8.9s6.674,11.316,8.512,14.8a50.288,50.288,0,0,0,4.063,6.867,1.839,1.839,0,0,1,.773,1.451c-.1.484.967,2.515,2.224,4.449a33.261,33.261,0,0,1,3,5.609c.29,1.064,1.064,1.934,1.548,1.934.579,0,.773.387.387.871-.29.483.192,1.547.967,2.321a5.3,5.3,0,0,1,1.451,2.515,1.059,1.059,0,0,0,.968,1.063c.579,0,.967.581.967,1.354a4.8,4.8,0,0,0,1.548,2.9c.773.871,1.16,1.547.87,1.547-.388,0,0,1.064.87,2.418,1.935,2.9,1.935,3.385.1,3.385a6.507,6.507,0,0,0-3.385,1.935c-1.064,1.063-2.128,1.935-2.419,1.837-2.224-.29-2.611.967-.773,2.9,1.258,1.354,2.708,2.031,3.579,1.741s1.74-.193,2.031.387a1.109,1.109,0,0,0,1.547.29c.58-.29.677,14.508.291,41.3l-.678,41.782-6.674,6.287c-3.676,3.482-9.187,9.188-12.38,12.767l-5.706,6.48,12.09,11.993,12.09,11.994-.483,15.475c-.29,8.511-.773,38.591-1.064,66.736-.29,28.242-.773,56.581-1.063,63.158l-.58,11.8h-14.8C6533.541,5231.107,6526.674,5230.817,6526.48,5230.431Zm20.408-320.819c.29-1.064-.388-1.838-1.741-2.225-1.451-.387-1.741-.774-.968-1.258a1.443,1.443,0,0,0,.58-1.838c-.967-1.547-2.515-.387-2.515,1.935,0,2.417,2.129,5.8,3.386,5.416A2.678,2.678,0,0,0,6546.889,4909.611Z" transform="translate(-6335.942 -4812.311)" fill="#2c2a2a"/>
        <path id="Tracé_17" data-name="Tracé 17" d="M7240,7293.919c0-2.321,1.547-34.432,3.385-71.379s3.385-68.381,3.385-69.832V7150h36.367l-1.644,18.667c-.871,10.155-3.772,43.523-6.287,73.99l-4.643,55.324H7240Z" transform="translate(-6986.305 -6879.185)" fill="#2c2a2a"/>
        <path id="Tracé_18" data-name="Tracé 18" d="M7891.484,4765.7c.677-5.223,6.867-57.451,10.059-84.919,6-51.842,7.834-67.51,9.671-82.019,1.064-8.125,1.935-16.732,1.935-19.054,0-2.418.581-4.836,1.451-5.707a4.943,4.943,0,0,0,1.45-2.031,9.538,9.538,0,0,1,1.935-2.612c.967-1.161,1.644-2.418,1.354-2.9-.291-.387,0-.773.58-.773s.774-.387.484-.968c-.29-.483-.1-.967.387-.967.58,0,1.064-.677,1.064-1.451s.387-1.451.773-1.451c.871,0,3.1-4.255,3.1-5.8,0-.58-.677-.967-1.451-.967a1.4,1.4,0,0,1-1.45-1.161c0-.774-.291-.87-.774-.29-1.064,1.547-6,1.451-6-.1,0-.87.581-1.063,1.741-.677,1.451.581,1.451.484.387-.967-1.16-1.354-1.16-1.838.1-3,.773-.773,1.644-1.161,2.031-.87,1.354,1.451.387-4.063-.967-5.707-1.354-1.451-1.451-2.321-.581-5.8a80.824,80.824,0,0,0,1.547-10.446c.291-3.482,1.354-13.637,2.418-22.729,1.064-9,3.289-27.952,4.933-42.073s4.062-34.529,5.319-45.458c1.354-10.929,3.579-29.983,5.03-42.267l2.611-22.536h45.071l-.483,2.225c-.291,1.16-4.643,29.789-9.672,63.544-5.126,33.756-12.09,80.181-15.572,103.007-5.9,38.591-10.736,70.9-29.79,197.308-4.062,26.6-7.544,49.327-7.834,50.584-.483,2.128-.773,2.128-15.959,2.128H7891Z" transform="translate(-7574.34 -4350)" fill="#2c2a2a"/>
        <path id="Tracé_19" data-name="Tracé 19" d="M7380,6414.353c0-1.161,4.449-2.128,6.094-1.258,1.257.677,1.644.484,1.644-1.161,0-1.837.58-1.934,11.606-1.934,6.383,0,11.606.387,11.606.871,0,.387-1.935.677-4.353.483-3.771-.29-4.353-.1-4.353,1.547,0,1.838-.677,1.935-11.122,1.935C7385.029,6414.836,7380,6414.643,7380,6414.353Zm11.413-1.645a1.343,1.343,0,0,0-2.515,0c-.1.483.387.871,1.257.871S7391.51,6413.191,7391.413,6412.708Zm3.868,0c-.58-1.741-2.708-2.031-2.708-.387a1.528,1.528,0,0,0,1.548,1.547C7394.992,6413.869,7395.476,6413.385,7395.281,6412.708Zm6-.193c0-.773-.968-1.257-2.418-1.257s-2.418.484-2.418,1.257.967,1.354,2.418,1.354S7401.278,6413.288,7401.278,6412.515Z" transform="translate(-7112.763 -6210.757)" fill="#2c2a2a"/>
        <path id="Tracé_20" data-name="Tracé 20" d="M7704.922,6417.98a2.72,2.72,0,0,0,1.16-2.321c0-1.064.484-1.644.967-1.354a3.051,3.051,0,0,1,.968,2.515c0,1.257-.678,1.838-2.128,1.741C7704.631,6418.561,7704.245,6418.27,7704.922,6417.98Z" transform="translate(-7405.961 -6214.579)" fill="#2c2a2a"/>
        <path id="Tracé_21" data-name="Tracé 21" d="M7354.938,6316.707a10.346,10.346,0,0,1-2.224-3.481c0-.678-.387-.291-.871.773-.677,1.644-.87,1.45-.87-1.161-.1-3.579,2.225-4.449,3.289-1.257.29,1.063,1.064,1.934,1.645,1.934s.773.291.483.678c-.386.29,0,1.063.774,1.645a1.788,1.788,0,0,1,.677,2.224C7357.356,6318.834,7356.486,6318.448,7354.938,6316.707Z" transform="translate(-7086.541 -6120.076)" fill="#2c2a2a"/>
        <path id="Tracé_22" data-name="Tracé 22" d="M7554.672,6388.119l-9.672-.484,9.672-.483c10.446-.483,10.543-.483,10.059.677C7564.537,6388.216,7559.992,6388.408,7554.672,6388.119Z" transform="translate(-7261.805 -6189.843)" fill="#2c2a2a"/>
        <path id="Tracé_23" data-name="Tracé 23" d="M7370,4505.815c0-2.031.291-6.287.58-9.575.581-4.933.968-5.8,2.418-5.707,1.064.1,1.838.484,1.838.871s.87.774,1.837.774a2.247,2.247,0,0,1,2.224,1.16c.484,1.257,4.643,2.128,4.643.968a3.862,3.862,0,0,0-1.16-1.935c-.774-.774-.774-1.451.193-2.611.677-.774.87-1.451.484-1.451s-.194-.677.483-1.451c.678-.87.967-1.741.678-2.127-.387-.291-.291-1.064.193-1.645a7.725,7.725,0,0,0,1.257-3.482,11.282,11.282,0,0,1,1.064-3.579,2.32,2.32,0,0,0,.193-2.224c-.291-.484-.193-.968.386-.968.484,0,.968-.773.968-1.644a19.5,19.5,0,0,1,1.161-6.093,9.84,9.84,0,0,0,.386-1.451c.194-.484.387-1.161.484-1.451s.291-1.257.581-2.128c.193-.967.58-2.515.773-3.385a18.733,18.733,0,0,1,.581-1.935,2.6,2.6,0,0,0,.484-1.257c.1-.483.387-1.257.483-1.645a9.156,9.156,0,0,0,.483-1.741,22.293,22.293,0,0,1,.773-2.417,15.661,15.661,0,0,0,1.064-3.869,9.69,9.69,0,0,1,.677-2.611,4.872,4.872,0,0,0,.387-1.258,12.493,12.493,0,0,1,.484-1.451c.1-.29.29-.773.386-1.161a5.782,5.782,0,0,1,.773-1.837,12.8,12.8,0,0,0,1.161-3.579c.387-2.031.1-2.612-1.354-2.612a5.1,5.1,0,0,0-3.385,2.225c-.773,1.161-1.547,2.031-1.741,1.838-.386-.581-4.062,1.064-4.739,2.128-.484.58-.773.193-.773-1.064a4.939,4.939,0,0,0-1.935-3.482c-1.064-.773-1.741-1.547-1.451-1.74.194-.291-.677-1.741-1.935-3.192-1.354-1.547-2.417-3.385-2.417-4.159a1.189,1.189,0,0,0-1.064-1.257c-.484,0-.677-.387-.387-.967.29-.483.1-.967-.387-.967a1.1,1.1,0,0,1-1.063-1.161,7.208,7.208,0,0,0-1.645-3c-1.257-1.451-1.451-2.031-.483-2.321.773-.29,1.16-2.418,1.16-5.9,0-7.544,1.934-49.23,2.515-53.1l.484-3.192H7423.2l-.484,5.126c-.193,2.708-.677,7.834-.967,11.316-.194,3.481-2.418,29.4-4.836,57.645-2.418,28.339-4.353,53.583-4.353,56.194,0,4.642,0,4.642-5.512,7.931-3.1,1.838-5.9,3.772-6.19,4.256s-.774.773-.968.677c-.773-.29-5.707,2.225-5.707,3,0,.387-1.063.967-2.418,1.258-1.354.386-2.417,1.063-2.417,1.547,0,.581-.677.968-1.548.968a9.277,9.277,0,0,0-4.062,1.74c-1.451,1.064-5.126,3.192-8.125,4.836l-5.61,3Zm4.836-6.383c-.484-.581-.677-1.354-.387-1.645s.1-.773-.29-1.064c-.484-.29-.967.678-1.064,2.225-.193,2.225.1,2.708,1.257,2.321C7375.417,4500.786,7375.61,4500.3,7374.836,4499.432Z" transform="translate(-7103.73 -4350)" fill="#2c2a2a"/>
        <path id="Tracé_24" data-name="Tracé 24" d="M5570.413,4482.313a111.691,111.691,0,0,1-1.161-11.413c-.29-4.546-.967-12.574-1.45-17.893-.581-5.319-2.515-28.629-4.353-51.745s-3.579-44.1-3.869-46.619L5559,4350h44.395l.58,8.028c.387,4.353,1.063,17.99,1.548,30.176.58,12.284,1.257,27.759,1.548,34.432l.677,12.187-3.289,6-3.288,6,2.03,1.644c1.161.87,2.9,2.127,3.87,2.708,1.45.87,1.837,2.9,2.417,12.574.291,6.287.483,11.7.291,11.9-.484.483-36.174,9.769-37.624,9.769C5571.478,4485.408,5570.7,4483.957,5570.413,4482.313Z" transform="translate(-5467.89 -4350)" fill="#2c2a2a"/>
        <path id="Tracé_25" data-name="Tracé 25" d="M6511.387,4368.86a102.779,102.779,0,0,1-.29-13.057l.29-5.319,22.052-.291,22.052-.193-.291,13.25-.29,13.348h-21.472l-21.472.1Z" transform="translate(-6327.813 -4350)" fill="#2c2a2a"/>
      </g>
      <g id="layer103" transform="translate(592.909 635.43)">
        <path id="Tracé_26" data-name="Tracé 26" d="M5850,6525.769c0-1.063,3.288-7.061,14.991-27.081,3.579-6.094,9.188-15.862,12.477-21.665,3.192-5.8,7.255-11.994,8.9-13.832l3-3.191h31.24v6.577c.29,46.328.193,58.128-.387,59C5919.251,6527.124,5850,6527.22,5850,6525.769Z" transform="translate(-5850 -6292.675)" fill="#039145"/>
        <path id="Tracé_27" data-name="Tracé 27" d="M7295.6,5798.288l-24.76-.483-3.385-4.353c-3.772-5.03-11.8-18.764-12.67-21.956-.773-2.611,1.063-3.869,28.919-19.634,10.64-6,20.795-11.993,22.633-13.347l3.289-2.515,2.515,3.191c1.354,1.838,6.577,10.253,11.51,18.861,5.029,8.511,11.025,18.86,13.444,22.826,7.254,11.9,9.382,16.539,7.835,17.6-.678.483-6.481.677-12.865.581C7325.677,5798.868,7309.235,5798.578,7295.6,5798.288Z" transform="translate(-7118.794 -5638.7)" fill="#039145"/>
        <path id="Tracé_28" data-name="Tracé 28" d="M6044.327,4814.823c-7.447-4.449-19.537-11.412-26.888-15.571s-13.637-8.125-13.831-8.8c-.483-1.16,3.191-8.221,12.38-24.18,1.935-3.192,6.577-11.219,10.349-17.893,7.351-12.574,11.22-18.377,12.574-18.377.387,0,1.935,2.321,3.482,5.126,1.451,2.708,6.964,12.187,12.09,20.988s12.284,20.892,15.766,26.985l6.48,11.122-2.321,3.869c-11.123,19.441-14.411,24.76-15.475,24.76C6058.352,4822.851,6051.678,4819.272,6044.327,4814.823Z" transform="translate(-5988.713 -4730)" fill="#039145"/>
      </g>
      <g id="layer104" transform="translate(545.727 625.759)">
        <path id="Tracé_29" data-name="Tracé 29" d="M6704.859,6407.413,6683,6384.975l21.956-22.439c11.993-12.38,22.148-22.535,22.535-22.535.29,0,.677,2.515.87,5.609l.29,5.514,53,.29c29.112.1,52.905.483,52.905.773s-3.095,5.9-6.866,12.283c-3.87,6.48-8.608,14.6-10.543,18.087-10.155,17.7-15.089,26.114-18.086,30.757l-3.289,5.223-33.562-.29-33.562-.29-.29,6c-.193,3.289-.58,6-.967,6C6727.007,6429.853,6716.852,6419.793,6704.859,6407.413Z" transform="translate(-6555.25 -6174.609)" fill="#36b248"/>
        <path id="Tracé_30" data-name="Tracé 30" d="M5393.3,5757.148c-5.32-8.705-27.178-46.716-29.79-51.745-2.128-4.353-2.031-4.739,2.611-12.863,13.637-23.6,23.019-39.849,25.728-44.3a36.069,36.069,0,0,0,3-5.8c0-.387-1.644-1.547-3.578-2.61-5.03-2.709-5.224-4.933-.581-6.094,2.032-.58,14.8-3.869,28.339-7.351s25.438-6.384,26.405-6.384a2.1,2.1,0,0,1,2.031,1.257c9.188,31.531,16.152,57.839,15.571,58.709-.386.58-2.417,0-5.319-1.645-2.612-1.45-4.933-2.417-5.126-2.224-.58.773-11.509,19.054-17.023,28.532-2.708,4.836-11.606,20.215-19.73,34.335s-15.378,25.728-16.152,25.921C5398.815,5764.983,5396.4,5762.178,5393.3,5757.148Z" transform="translate(-5362.175 -5524.248)" fill="#36b248"/>
        <path id="Tracé_31" data-name="Tracé 31" d="M6497.351,4737.456c-19.827-5.223-28.145-7.834-28.339-8.8-.1-.871,1.451-2.418,3.676-3.675,2.127-1.161,3.869-2.708,3.869-3.289s-1.838-4.159-3.965-7.931c-5.223-8.9-23.5-40.623-36.851-63.739-5.706-10.059-10.155-18.667-9.865-19.15s16.539-.871,37.527-.871h37.141l3.869,6.577c2.127,3.578,7.447,12.767,11.8,20.5,12.09,21.085,18.474,31.918,18.957,31.918a28.26,28.26,0,0,0,4.062-2.225c4.836-3.095,7.254-3.966,6.771-2.417-.291.676-3.482,11.7-7.061,24.47-10.64,37.914-10.059,36.27-11.9,36.173C6526.173,4744.9,6512.826,4741.518,6497.351,4737.456Z" transform="translate(-6322.982 -4630)" fill="#36b248"/>
      </g>
      <g id="layer105" transform="translate(418.976 221.872)">
        <path id="Tracé_32" data-name="Tracé 32" d="M4140.119,4474.78c-7.06-1.645-13.057-7.834-15.088-15.378-.483-1.837-1.741-9.672-2.9-17.41-3.481-24.179-6.771-46.521-8.7-58.515-.967-6.384-2.708-17.7-3.869-25.147s-2.708-16.829-3.385-20.794c-1.354-7.447-2.515-14.992-3-19.344-.1-1.354-1.547-10.929-3.288-21.278-1.645-10.349-3.386-22.343-3.966-26.6-1.354-10.639-8.511-57.162-8.995-58.709a33.273,33.273,0,0,1-.967-5.417c-.29-2.321-1.161-7.931-2.031-12.573-.773-4.643-1.644-10.542-1.934-13.251-.29-2.611-.87-6.964-1.354-9.671-.483-2.612-1.354-8.125-2.031-12.091-.58-3.965-1.451-9.671-1.935-12.573s-1.354-8.995-1.935-13.541-1.837-13.637-2.9-20.311-3.288-20.795-4.933-31.434-4.062-25.824-5.32-33.852c-3.869-23.793-4.256-25.921-4.74-30.95-.29-2.612-.967-6.77-1.45-9.188-2.128-10.446-3.966-25.244-3.676-29.983.29-5.126.387-5.223,3.676-6,3.578-.774,114.322-.967,364.633-.58l151.367.29-.193,8.221a128.871,128.871,0,0,1-1.741,16.926c-.871,4.836-1.935,11.316-2.418,14.508-1.741,11.606-2.031,13.637-2.9,18.377-.484,2.708-1.354,8.318-1.935,12.573s-1.451,10.156-1.934,13.057c-2.031,12.573-3.386,22.245-4.353,30.467-.387,3.192-2.418,16.442-5.8,38.688-.29,1.644-.967,6-1.547,9.672-.581,3.772-1.354,8.512-1.838,10.64-.387,2.127-1.257,7.544-1.935,12.09s-1.547,9.479-2.031,11.026a24.273,24.273,0,0,0-.871,6,34.913,34.913,0,0,1-.967,7.351c-.484,2.322-1.354,7.448-1.935,11.413s-1.45,9.672-1.934,12.574-1.354,8.608-1.838,12.574c-.58,3.965-1.741,11.8-2.515,17.313-.871,5.513-1.935,13.057-2.418,16.926-.483,3.771-1.161,8.221-1.451,9.769-.967,5.9-2.418,14.895-4.449,27.565-1.064,7.157-2.611,16.732-3.482,21.278-.774,4.546-1.838,10.833-2.225,14.025-.483,3.192-1.354,8.9-1.934,12.573-2.708,17.7-4.643,31.337-5.319,36.754-.387,2.708-1.741,11.8-3,20.311-1.354,8.511-2.611,17.022-2.9,18.86-.484,3.869-3.1,20.408-3.772,24.664-1.451,8.608-2.708,16.056-3.579,20.408-1.257,7.351-5.61,13.637-11.22,16.152l-4.546,2.128-169.259.193C4210.337,4475.65,4142.44,4475.361,4140.119,4474.78Zm59.386-51.842c0-1.451-.677-7.834-1.451-14.314-.774-6.383-2.224-18.958-3.289-28.049-1.063-8.995-3.1-25.824-4.449-37.237s-3.385-27.952-4.449-36.753c-3.289-27.952-4.643-38.688-7.157-58.806-1.354-10.736-4.159-34.916-6.287-53.68-2.127-18.667-6.286-53.873-9.188-78.052s-6.867-58.129-8.8-75.442-3.676-32.014-3.869-32.595c-.29-.967-5.513-1.257-22.246-1.257h-21.955l.677,6.094c.774,6.48,4.643,32.5,12.187,81.438,2.611,17.023,7.158,47.3,10.156,67.221s7.544,50.2,10.156,67.22c6.19,40.138,8.8,57.354,14.121,93.334,2.321,16.249,4.933,33.466,5.707,38.2.773,4.836,3.191,20.214,5.319,34.335s4.159,26.792,4.449,28.339l.58,2.612h29.79Zm63.449-8.7c-.291-6.287-1.258-23.793-2.031-38.979s-1.838-36.657-2.515-47.876c-.581-11.123-1.257-26.985-1.645-35.109l-.677-14.7H4293.9l1.257,73.313c.677,40.236,1.451,73.508,1.741,73.991.193.387,7.061.677,15.282.677h14.8l.58-11.8c.291-6.577.774-35.109,1.064-63.544.581-50.295,1.257-80.471,1.838-81.051.193-.193,4.545,4.256,9.769,9.865,5.126,5.61,9.769,10.156,10.252,10.156.387,0,.871-2.708,1.064-6l.291-6.093H4359c4.643,0,7.254.387,7.544,1.16.29.581-1.064,32.4-3,70.605s-3.482,71.089-3.482,73.12v3.579h30.563l4.642-55.324c2.515-30.467,5.417-63.642,6.287-73.8l1.547-18.377,8.028-.29,7.931-.29,3.288-5.03c1.741-2.8,5.61-9.188,8.512-14.217,15.088-26.211,14.314-24.954,14.314-21.085,0,1.935-.87,10.252-1.935,18.376-1.838,14.508-3.675,30.177-9.672,82.019-3.191,27.468-9.381,79.7-10.059,84.92l-.483,3.1H4438.4c15.185,0,15.475,0,15.959-2.128.29-1.257,3.772-23.986,7.834-50.584,19.054-126.413,23.89-158.717,29.789-197.309,3.482-22.826,10.446-69.251,15.572-103.007,5.029-33.755,9.382-62.384,9.672-63.545l.483-2.225h-45.071l-2.612,22.536c-1.451,12.283-3.675,31.337-5.03,42.267-2.127,17.99-4.545,38.688-10.252,88.015-1.064,9.285-2.321,20.5-2.708,24.954-.483,4.449-1.257,8.511-1.741,8.995-1.257,1.257-1.547.774-24.857-39.461a74.9,74.9,0,0,0-7.447-11.026c-2.128-2.322-2.805-3.965-2.805-6.867,0-2.127,1.935-26.984,4.353-55.324,2.418-28.242,4.643-54.163,4.836-57.645.291-3.482.774-8.608.967-11.316l.484-5.126h-44.395l-.483,3.192c-.581,3.869-2.515,45.555-2.515,53.2,0,3.772-.387,5.513-1.257,5.513-.581,0-4.16-5.32-7.834-11.8-3.676-6.577-8.222-14.411-10.059-17.41l-3.385-5.61h-21.955v-27.082l-21.956.194-22.052.29.193,13.347.1,13.251h-4.159c-2.321,0-4.449.387-4.739.871-.387.483,1.741,5.029,4.643,9.962l5.32,9.189-.677,6.673-.677,6.674-3.965-6.77c-2.225-3.676-5.223-9.092-6.674-11.8-1.547-2.8-3.1-5.126-3.482-5.126-1.354,0-5.223,5.8-12.573,18.377-11.413,19.827-13.058,22.632-15.088,25.921l-1.935,3.1-.677-11.8c-.291-6.577-.967-21.859-1.548-34.142-.483-12.187-1.161-25.824-1.547-30.177l-.581-8.028h-44.395l.58,4.643c.291,2.515,2.031,23.31,3.869,46.135,1.837,22.922,3.772,46.426,4.255,52.229.581,5.9,1.257,13.928,1.547,17.893s.774,9,1.064,11.219c.58,3.869.483,3.966-2.515,4.545-4.062.871-3.579,3.482,1.257,6,1.934,1.064,3.579,2.225,3.579,2.611a36.073,36.073,0,0,1-3,5.8c-2.708,4.449-12.09,20.7-25.728,44.3-2.321,3.965-4.159,7.738-4.159,8.511,0,1.741,1.548,4.739,14.8,27.759,14.6,25.534,21.182,36.27,22.343,36.27a5.783,5.783,0,0,0,2.514-1.451c1.547-1.451,1.741-1.161,2.225,3.095.387,2.515,2.418,26.018,4.546,52.036,2.128,26.114,4.739,57.838,5.8,70.509s1.935,23.89,1.935,24.954c0,1.644,1.063,1.741,15.572,1.741h15.668Z" transform="translate(-4051.687 -3629.948)" fill="#616263"/>
        <path id="Tracé_33" data-name="Tracé 33" d="M6081.26,5527.144a27.061,27.061,0,0,1-.773-6.577c-.193-5.32.193-6.48,3.965-13.057s11.413-19.15,12.284-20.311c.193-.193,2.515.773,5.126,2.225,2.9,1.644,4.933,2.225,5.319,1.644.58-.87-6.384-27.178-15.572-58.709-.483-1.645-3.675-1.547-9.478.193-2.612.774-5.029,1.257-5.223.968-.581-.484-1.934-21.956-1.547-22.633.387-.581,35.979,19.827,42.073,24.18l2.611,1.838.1,32.111c.1,17.7.387,34.722.677,37.817l.677,5.513h-14.121c-16.345,0-16.442.1-22.342,9.962C6083.195,5525.4,6081.454,5527.531,6081.26,5527.144Z" transform="translate(-5879.57 -4931.462)" fill="#616263"/>
        <path id="Tracé_34" data-name="Tracé 34" d="M6938.58,5733.246c.387-22.632.87-41.3,1.064-41.493.29-.29,9.575,1.838,20.794,4.739l20.408,5.223-.677,10.156c-.387,5.609-.677,10.155-.774,10.155,0,.1-2.611,1.741-5.707,3.675-6.577,4.256-6.577,4.063-.193,15.185,4.739,8.415,4.642,7.738,4.449,17.7l-.1,7.544-9.382-.291-9.479-.29-.291-5.513c-.193-3.1-.676-5.61-1.16-5.61-.387,0-5.029,4.449-10.155,9.962l-9.382,9.865Z" transform="translate(-6658.836 -5185.149)" fill="#616263"/>
        <path id="Tracé_35" data-name="Tracé 35" d="M7740,6384.287a16.933,16.933,0,0,1,.677-4.062l.58-2.225,19.441.677c10.736.387,19.634.774,19.73.967a7.241,7.241,0,0,1-.29,3.289l-.678,3h-19.73C7741.548,6385.932,7740,6385.834,7740,6384.287Z" transform="translate(-7383.268 -5805.047)" fill="#616263"/>
        <path id="Tracé_36" data-name="Tracé 36" d="M6733.241,873.323c-4.062-1.451-6.673-3.869-50.778-47.586-21.568-21.278-44.394-43.717-50.777-49.907-6.384-6.093-32.885-32.208-59-58.032-26.018-25.824-54.743-54.066-63.834-62.868-9-8.7-35.98-35.3-59.967-59-23.89-23.7-55.13-54.356-69.445-68.091-24.76-23.987-25.921-25.244-27.372-30.37-4.449-15.185,3.1-32.885,16.83-39.462,5.512-2.611,14.8-4.449,19.053-3.675,11.316,1.838,13.057,3.192,37.721,27.372,97.59,96.043,101.75,100.008,102.91,99.621.581-.193,7.448-6.77,15.282-14.508,14.991-14.7,16.056-15.378,24.373-15.378a18.935,18.935,0,0,1,7.061,1.741c5.32,2.418,98.268,94.3,100.492,99.331,4.158,9.092,1.547,14.6-15.282,31.917-7.061,7.254-12.864,13.734-12.864,14.411,0,.58,27.855,28.532,62,62,69.929,68.768,67.607,66.06,67.607,79.891,0,8.221-1.16,12.09-5.61,18.957-6.383,9.962-15.958,14.895-28.629,14.7A39.048,39.048,0,0,1,6733.241,873.323ZM6631.4,667.794c3.675-3.579,6.577-7.06,6.577-7.738s-10.156-11.123-22.439-23.213c-12.38-12.187-28.145-27.565-35.013-34.336-6.77-6.867-12.863-12.38-13.347-12.38-1.451,0-14.314,13.251-14.314,14.8,0,2.224,68.284,69.348,70.509,69.348C6624.238,674.274,6627.816,671.372,6631.4,667.794Z" transform="translate(-6128.422 -454.155)" fill="#616263"/>
      </g>
      <g id="layer106" transform="translate(30 197)">
        <path id="Tracé_37" data-name="Tracé 37" d="M214.735,375.738c-3.482-2.321-10.156-6.674-14.992-9.769-14.6-9.382-24.76-15.959-32.885-21.182-4.256-2.8-10.446-6.77-13.831-8.8s-8.415-5.32-11.316-7.157c-2.8-1.838-13.541-8.8-23.89-15.378-10.252-6.577-23.406-15.185-29.306-18.957-27.082-17.8-37.237-24.373-42.653-27.565C34.643,260.545,30,256.87,30,254.645c0-2.611,32.014-53.2,35.206-55.807L67.624,197l7.544,4.739c8.028,4.933,22.729,14.411,33.175,21.182,3.482,2.321,7.351,4.643,8.608,5.32,1.354.677,10.252,6.384,19.828,12.574,9.672,6.287,21.859,14.121,27.082,17.506,5.32,3.385,14.024,9.092,19.344,12.574,5.416,3.482,13.057,8.415,17.023,10.929,20.214,12.864,25.631,16.346,36.85,23.6,6.674,4.352,12.477,7.931,12.767,7.931,1.161,0,10.349,6.867,10.349,7.738,0,.387-2.515,4.643-5.61,9.285-3.1,4.739-8.995,14.024-13.154,20.7s-9.285,14.6-11.413,17.7c-2.031,3-3.482,6-3.192,6.48.677,1.161-2.9,4.836-4.546,4.739C221.6,379.9,218.217,377.963,214.735,375.738Z" transform="translate(-30 -197)" fill="#ca8221"/>
        <path id="Tracé_39" data-name="Tracé 39" d="M-.022.7,13,0V72H0Z" transform="matrix(0.819, 0.574, -0.574, 0.819, 229.786, 122.554)" fill="#f08d4b"/>
      </g>
    </g>
    <path id="Tracé_38" data-name="Tracé 38" d="M-.064.312l423.3-1.078L313,74-.47,72.39Z" transform="translate(631.572 209.755) rotate(34)" fill="#ebebeb"/>
  </g>
</svg>
